#!OML:ASF E:\Style4\Style4.ASF
:FULLY-SPECIFIED
:DEGREES
2920
root 0.123343 18.1892 -1.27224 1.65954 -12.6948 4.74064
lowerback 6.41722 5.36989 1.46508
upperback -0.066116 7.23181 -0.879417
thorax -3.35093 3.56497 -2.36829
lowerneck 2.52929 -3.32316 -2.80452
upperneck -3.68695 -4.50093 1.28055
head -1.47471 -2.2334 0.957183
rclavicle 3.762e-014 -1.19271e-014
rhumerus 18.9804 21.0634 -64.3707
rradius 51.4113
rwrist -35.0766
rhand -25.1129 27.943
rfingers 7.12502
rthumb 1.40257 -2.03212
lclavicle 3.762e-014 -1.19271e-014
lhumerus -37.9357 -45.6418 76.5963
lradius 130.106
lwrist 43.6139
lhand -9.44947 20.2398
lfingers 7.12502
lthumb 16.5137 49.5571
rfemur -11.3142 11.7087 12.4137
rtibia 20.466
rfoot -11.8317 -9.53022
rtoes -11.5494
lfemur -6.58026 3.26482 -24.3244
ltibia 19.398
lfoot -14.6848 14.8679
ltoes -13.4138
2921
root 0.115379 18.181 -1.28618 1.51333 -12.4198 4.73868
lowerback 6.40679 5.36322 1.48427
upperback 0.142521 7.22482 -0.79885
thorax -3.13738 3.56684 -2.28084
lowerneck 2.63254 -3.32564 -2.88413
upperneck -3.46359 -4.51647 1.11648
head -1.42295 -2.23878 0.91801
rclavicle 6.66923e-014 1.59028e-015
rhumerus 17.817 21.3125 -64.9416
rradius 51.8992
rwrist -34.9809
rhand -25.0173 28.0558
rfingers 7.12502
rthumb 1.49486 -1.91874
lclavicle 6.66923e-014 1.59028e-015
lhumerus -34.5554 -45.0155 74.2993
lradius 130.365
lwrist 43.3987
lhand -9.52693 19.7511
lfingers 7.12502
lthumb 16.4392 49.0745
rfemur -11.2443 11.6041 12.4878
rtibia 20.6932
rfoot -11.9271 -9.65951
rtoes -11.5208
lfemur -6.82503 3.17402 -24.2443
ltibia 19.9959
lfoot -14.5555 14.6269
ltoes -14.084
2922
root 0.107073 18.1737 -1.30279 1.37211 -12.1008 4.64592
lowerback 6.54144 5.34028 1.59852
upperback 0.282965 7.20552 -0.710492
thorax -3.0653 3.55798 -2.25635
lowerneck 2.78413 -3.32632 -3.02192
upperneck -3.12427 -4.52981 1.03228
head -1.34012 -2.24514 0.91269
rclavicle 8.02096e-014 -6.36111e-015
rhumerus 16.3881 21.4425 -65.666
rradius 52.5662
rwrist -34.7657
rhand -24.874 27.9477
rfingers 7.12502
rthumb 1.6333 -2.0258
lclavicle 8.02096e-014 -6.36111e-015
lhumerus -31.2239 -44.0381 72.0711
lradius 130.62
lwrist 43.0435
lhand -8.89239 19.6377
lfingers 7.12502
lthumb 17.05 48.9095
rfemur -11.1636 11.4948 12.6693
rtibia 20.9478
rfoot -12.0326 -9.83409
rtoes -11.5455
lfemur -7.01616 3.111 -24.0691
ltibia 20.5375
lfoot -14.3696 14.355
ltoes -14.759
2923
root 0.0992029 18.1671 -1.31808 1.22977 -11.7605 4.64504
lowerback 6.70071 5.31867 1.65083
upperback 0.393497 7.18263 -0.669631
thorax -3.03947 3.54701 -2.25099
lowerneck 2.86455 -3.33628 -3.1768
upperneck -2.59404 -4.55166 0.984041
head -1.18355 -2.25833 0.916461
rclavicle -2.88735e-014 3.97569e-015
rhumerus 14.797 21.4195 -66.4873
rradius 53.3637
rwrist -34.4621
rhand -24.603 27.931
rfingers 7.12502
rthumb 1.895 -2.04033
lclavicle -2.88735e-014 3.97569e-015
lhumerus -27.968 -43.1393 70.0844
lradius 130.769
lwrist 42.8988
lhand -8.98957 19.8064
lfingers 7.12502
lthumb 16.9565 49.0862
rfemur -11.1092 11.3079 12.7455
rtibia 21.2148
rfoot -12.1195 -10.0014
rtoes -11.854
lfemur -7.20347 2.94334 -24.0103
ltibia 21.0546
lfoot -14.3563 14.1451
ltoes -14.8602
2924
root 0.0919187 18.1582 -1.32868 1.15009 -11.4538 4.64717
lowerback 6.75361 5.31467 1.71871
upperback 0.509203 7.18197 -0.662199
thorax -2.94181 3.54838 -2.27807
lowerneck 2.94755 -3.35697 -3.29711
upperneck -2.12825 -4.58652 0.926456
head -1.04909 -2.27816 0.912972
rclavicle 2.5196e-014 -6.36111e-015
rhumerus 13.1993 21.4245 -67.2318
rradius 54.2538
rwrist -34.268
rhand -24.4567 28.0038
rfingers 7.12502
rthumb 2.03626 -1.96625
lclavicle 2.5196e-014 -6.36111e-015
lhumerus -24.7501 -42.2005 68.2606
lradius 130.765
lwrist 42.7981
lhand -9.32989 19.688
lfingers 7.12502
lthumb 16.6289 48.9957
rfemur -11.1268 11.1255 12.796
rtibia 21.4883
rfoot -12.223 -10.1262
rtoes -11.6872
lfemur -7.42598 2.79573 -23.9516
ltibia 21.543
lfoot -14.5455 13.8418
ltoes -14.4034
2925
root 0.0862032 18.148 -1.33864 1.03646 -11.1562 4.64321
lowerback 6.7604 5.3264 1.80047
upperback 0.681603 7.20151 -0.670087
thorax -2.75521 3.56191 -2.32113
lowerneck 3.13577 -3.40849 -3.4262
upperneck -1.78053 -4.6647 0.956852
head -0.967112 -2.32021 0.943607
rclavicle -1.90336e-014 -4.77083e-015
rhumerus 11.5887 21.4691 -67.8621
rradius 55.3051
rwrist -34.2884
rhand -24.4049 28.0176
rfingers 7.12502
rthumb 2.08631 -1.95193
lclavicle -1.90336e-014 -4.77083e-015
lhumerus -21.5058 -41.12 66.5259
lradius 130.563
lwrist 42.7107
lhand -9.42304 19.4966
lfingers 7.12502
lthumb 16.5392 48.8117
rfemur -11.1307 10.9303 12.8581
rtibia 21.802
rfoot -12.3518 -10.2249
rtoes -11.6244
lfemur -7.56853 2.78514 -23.8892
ltibia 21.9527
lfoot -14.5906 13.5155
ltoes -14.4176
2926
root 0.0812467 18.1386 -1.34793 0.871478 -10.8565 4.60966
lowerback 6.81843 5.3214 1.87372
upperback 0.866184 7.19941 -0.652057
thorax -2.58997 3.56461 -2.33621
lowerneck 3.36031 -3.44221 -3.52497
upperneck -1.39833 -4.71938 0.988194
head -0.881725 -2.3513 0.969437
rclavicle -2.21148e-014 1.35174e-014
rhumerus 9.91812 21.6015 -68.4884
rradius 56.449
rwrist -34.3797
rhand -24.4746 27.9472
rfingers 7.12502
rthumb 2.01902 -2.02298
lclavicle -2.21148e-014 1.35174e-014
lhumerus -18.4867 -39.8757 65.069
lradius 130.258
lwrist 42.6276
lhand -9.58788 19.6037
lfingers 7.12502
lthumb 16.3805 48.932
rfemur -11.0952 10.7524 12.9598
rtibia 22.1654
rfoot -12.5326 -10.3197
rtoes -11.7783
lfemur -7.61438 2.74458 -23.8107
ltibia 22.3022
lfoot -14.5695 13.265
ltoes -14.6263
2927
root 0.0751275 18.1286 -1.35694 0.707156 -10.5128 4.61038
lowerback 6.88966 5.30471 1.86359
upperback 1.05096 7.17616 -0.618395
thorax -2.4452 3.55718 -2.29004
lowerneck 3.60126 -3.50692 -3.49882
upperneck -1.09169 -4.81488 0.829504
head -0.828573 -2.40022 0.917484
rclavicle 3.49861e-014 1.59028e-014
rhumerus 8.23457 21.7353 -69.0797
rradius 57.6831
rwrist -34.6308
rhand -24.5885 27.95
rfingers 7.12502
rthumb 1.90895 -2.02124
lclavicle 3.49861e-014 1.59028e-014
lhumerus -15.7231 -38.5902 63.8757
lradius 129.908
lwrist 42.4858
lhand -10.0164 19.7584
lfingers 7.12502
lthumb 15.9679 49.1202
rfemur -11.0418 10.5593 13.0241
rtibia 22.521
rfoot -12.7333 -10.4302
rtoes -11.593
lfemur -7.6809 2.65808 -23.7689
ltibia 22.6604
lfoot -14.578 13.0416
ltoes -14.7411
